<svg xmlns="http://www.w3.org/2000/svg" xmlns:xlink="http://www.w3.org/1999/xlink" xmlns:s="https://github.com/nturley/netlistsvg" width="1149" height="562.5"><style>svg {
  stroke:#000;
  fill:none;
}
text {
  fill:#000;
  stroke:none;
  font-size:10px;
  font-weight: bold;
  font-family: "Courier New", monospace;
}
line {
    stroke-linecap: round;
}
.nodelabel {
  text-anchor: middle;
}
.inputPortLabel {
  text-anchor: end;
}
.splitjoinBody {
  fill:#000;
}</style><g s:type="add" transform="translate(509,168.5)" s:width="25" s:height="25" id="cell_$add$/Users/thomaskoetting/Verilog/opamp.v:14$10"><s:alias val="$add"/><circle r="12.5" cx="12.5" cy="12.5" fill="#ffc9c3" class="cell_$add$/Users/thomaskoetting/Verilog/opamp.v:14$10"/><line x1="7.5" x2="17.5" y1="12.5" y2="12.5" class="cell_$add$/Users/thomaskoetting/Verilog/opamp.v:14$10"/><line x1="12.5" x2="12.5" y1="7.5" y2="17.5" class="cell_$add$/Users/thomaskoetting/Verilog/opamp.v:14$10"/><g s:x="2" s:y="5" s:pid="A"/><g s:x="2" s:y="20" s:pid="B"/><g s:x="26" s:y="12.5" s:pid="Y"/></g><g s:type="add" transform="translate(630,244.5)" s:width="25" s:height="25" id="cell_$add$/Users/thomaskoetting/Verilog/opamp.v:14$12"><s:alias val="$add"/><circle r="12.5" cx="12.5" cy="12.5" fill="#ffc9c3" class="cell_$add$/Users/thomaskoetting/Verilog/opamp.v:14$12"/><line x1="7.5" x2="17.5" y1="12.5" y2="12.5" class="cell_$add$/Users/thomaskoetting/Verilog/opamp.v:14$12"/><line x1="12.5" x2="12.5" y1="7.5" y2="17.5" class="cell_$add$/Users/thomaskoetting/Verilog/opamp.v:14$12"/><g s:x="2" s:y="5" s:pid="A"/><g s:x="2" s:y="20" s:pid="B"/><g s:x="26" s:y="12.5" s:pid="Y"/></g><g s:type="add" transform="translate(751,319.5)" s:width="25" s:height="25" id="cell_$add$/Users/thomaskoetting/Verilog/opamp.v:14$14"><s:alias val="$add"/><circle r="12.5" cx="12.5" cy="12.5" fill="#ffc9c3" class="cell_$add$/Users/thomaskoetting/Verilog/opamp.v:14$14"/><line x1="7.5" x2="17.5" y1="12.5" y2="12.5" class="cell_$add$/Users/thomaskoetting/Verilog/opamp.v:14$14"/><line x1="12.5" x2="12.5" y1="7.5" y2="17.5" class="cell_$add$/Users/thomaskoetting/Verilog/opamp.v:14$14"/><g s:x="2" s:y="5" s:pid="A"/><g s:x="2" s:y="20" s:pid="B"/><g s:x="26" s:y="12.5" s:pid="Y"/></g><g s:type="add" transform="translate(872,317)" s:width="25" s:height="25" id="cell_$add$/Users/thomaskoetting/Verilog/opamp.v:14$16"><s:alias val="$add"/><circle r="12.5" cx="12.5" cy="12.5" fill="#ffc9c3" class="cell_$add$/Users/thomaskoetting/Verilog/opamp.v:14$16"/><line x1="7.5" x2="17.5" y1="12.5" y2="12.5" class="cell_$add$/Users/thomaskoetting/Verilog/opamp.v:14$16"/><line x1="12.5" x2="12.5" y1="7.5" y2="17.5" class="cell_$add$/Users/thomaskoetting/Verilog/opamp.v:14$16"/><g s:x="2" s:y="5" s:pid="A"/><g s:x="2" s:y="20" s:pid="B"/><g s:x="26" s:y="12.5" s:pid="Y"/></g><g s:type="add" transform="translate(991,394.5)" s:width="25" s:height="25" id="cell_$add$/Users/thomaskoetting/Verilog/opamp.v:14$18"><s:alias val="$add"/><circle r="12.5" cx="12.5" cy="12.5" fill="#ffc9c3" class="cell_$add$/Users/thomaskoetting/Verilog/opamp.v:14$18"/><line x1="7.5" x2="17.5" y1="12.5" y2="12.5" class="cell_$add$/Users/thomaskoetting/Verilog/opamp.v:14$18"/><line x1="12.5" x2="12.5" y1="7.5" y2="17.5" class="cell_$add$/Users/thomaskoetting/Verilog/opamp.v:14$18"/><g s:x="2" s:y="5" s:pid="A"/><g s:x="2" s:y="20" s:pid="B"/><g s:x="26" s:y="12.5" s:pid="Y"/></g><g s:type="add" transform="translate(146,29.5)" s:width="25" s:height="25" id="cell_$add$/Users/thomaskoetting/Verilog/opamp.v:14$4"><s:alias val="$add"/><circle r="12.5" cx="12.5" cy="12.5" fill="#ffc9c3" class="cell_$add$/Users/thomaskoetting/Verilog/opamp.v:14$4"/><line x1="7.5" x2="17.5" y1="12.5" y2="12.5" class="cell_$add$/Users/thomaskoetting/Verilog/opamp.v:14$4"/><line x1="12.5" x2="12.5" y1="7.5" y2="17.5" class="cell_$add$/Users/thomaskoetting/Verilog/opamp.v:14$4"/><g s:x="2" s:y="5" s:pid="A"/><g s:x="2" s:y="20" s:pid="B"/><g s:x="26" s:y="12.5" s:pid="Y"/></g><g s:type="add" transform="translate(267,47.5)" s:width="25" s:height="25" id="cell_$add$/Users/thomaskoetting/Verilog/opamp.v:14$6"><s:alias val="$add"/><circle r="12.5" cx="12.5" cy="12.5" fill="#ffc9c3" class="cell_$add$/Users/thomaskoetting/Verilog/opamp.v:14$6"/><line x1="7.5" x2="17.5" y1="12.5" y2="12.5" class="cell_$add$/Users/thomaskoetting/Verilog/opamp.v:14$6"/><line x1="12.5" x2="12.5" y1="7.5" y2="17.5" class="cell_$add$/Users/thomaskoetting/Verilog/opamp.v:14$6"/><g s:x="2" s:y="5" s:pid="A"/><g s:x="2" s:y="20" s:pid="B"/><g s:x="26" s:y="12.5" s:pid="Y"/></g><g s:type="add" transform="translate(388,93.5)" s:width="25" s:height="25" id="cell_$add$/Users/thomaskoetting/Verilog/opamp.v:14$8"><s:alias val="$add"/><circle r="12.5" cx="12.5" cy="12.5" fill="#ffc9c3" class="cell_$add$/Users/thomaskoetting/Verilog/opamp.v:14$8"/><line x1="7.5" x2="17.5" y1="12.5" y2="12.5" class="cell_$add$/Users/thomaskoetting/Verilog/opamp.v:14$8"/><line x1="12.5" x2="12.5" y1="7.5" y2="17.5" class="cell_$add$/Users/thomaskoetting/Verilog/opamp.v:14$8"/><g s:x="2" s:y="5" s:pid="A"/><g s:x="2" s:y="20" s:pid="B"/><g s:x="26" s:y="12.5" s:pid="Y"/></g><g s:type="lt" transform="translate(630,304.5)" s:width="25" s:height="25" id="cell_$lt$/Users/thomaskoetting/Verilog/opamp.v:13$11"><s:alias val="$lt"/><circle r="12.5" cx="12.5" cy="12.5" fill="#ffffff" class="cell_$lt$/Users/thomaskoetting/Verilog/opamp.v:13$11"/><line x1="6" x2="17" y1="12" y2="7" class="cell_$lt$/Users/thomaskoetting/Verilog/opamp.v:13$11"/><line x1="6" x2="17" y1="12" y2="17" class="cell_$lt$/Users/thomaskoetting/Verilog/opamp.v:13$11"/><g s:x="2" s:y="5" s:pid="A"/><g s:x="2" s:y="20" s:pid="B"/><g s:x="25" s:y="12.5" s:pid="Y"/></g><g s:type="lt" transform="translate(751,379.5)" s:width="25" s:height="25" id="cell_$lt$/Users/thomaskoetting/Verilog/opamp.v:13$13"><s:alias val="$lt"/><circle r="12.5" cx="12.5" cy="12.5" fill="#ffffff" class="cell_$lt$/Users/thomaskoetting/Verilog/opamp.v:13$13"/><line x1="6" x2="17" y1="12" y2="7" class="cell_$lt$/Users/thomaskoetting/Verilog/opamp.v:13$13"/><line x1="6" x2="17" y1="12" y2="17" class="cell_$lt$/Users/thomaskoetting/Verilog/opamp.v:13$13"/><g s:x="2" s:y="5" s:pid="A"/><g s:x="2" s:y="20" s:pid="B"/><g s:x="25" s:y="12.5" s:pid="Y"/></g><g s:type="lt" transform="translate(872,440.5)" s:width="25" s:height="25" id="cell_$lt$/Users/thomaskoetting/Verilog/opamp.v:13$15"><s:alias val="$lt"/><circle r="12.5" cx="12.5" cy="12.5" fill="#ffffff" class="cell_$lt$/Users/thomaskoetting/Verilog/opamp.v:13$15"/><line x1="6" x2="17" y1="12" y2="7" class="cell_$lt$/Users/thomaskoetting/Verilog/opamp.v:13$15"/><line x1="6" x2="17" y1="12" y2="17" class="cell_$lt$/Users/thomaskoetting/Verilog/opamp.v:13$15"/><g s:x="2" s:y="5" s:pid="A"/><g s:x="2" s:y="20" s:pid="B"/><g s:x="25" s:y="12.5" s:pid="Y"/></g><g s:type="lt" transform="translate(991.3333333333334,520.5)" s:width="25" s:height="25" id="cell_$lt$/Users/thomaskoetting/Verilog/opamp.v:13$17"><s:alias val="$lt"/><circle r="12.5" cx="12.5" cy="12.5" fill="#ffffff" class="cell_$lt$/Users/thomaskoetting/Verilog/opamp.v:13$17"/><line x1="6" x2="17" y1="12" y2="7" class="cell_$lt$/Users/thomaskoetting/Verilog/opamp.v:13$17"/><line x1="6" x2="17" y1="12" y2="17" class="cell_$lt$/Users/thomaskoetting/Verilog/opamp.v:13$17"/><g s:x="2" s:y="5" s:pid="A"/><g s:x="2" s:y="20" s:pid="B"/><g s:x="25" s:y="12.5" s:pid="Y"/></g><g s:type="lt" transform="translate(146,78.5)" s:width="25" s:height="25" id="cell_$lt$/Users/thomaskoetting/Verilog/opamp.v:13$3"><s:alias val="$lt"/><circle r="12.5" cx="12.5" cy="12.5" fill="#ffffff" class="cell_$lt$/Users/thomaskoetting/Verilog/opamp.v:13$3"/><line x1="6" x2="17" y1="12" y2="7" class="cell_$lt$/Users/thomaskoetting/Verilog/opamp.v:13$3"/><line x1="6" x2="17" y1="12" y2="17" class="cell_$lt$/Users/thomaskoetting/Verilog/opamp.v:13$3"/><g s:x="2" s:y="5" s:pid="A"/><g s:x="2" s:y="20" s:pid="B"/><g s:x="25" s:y="12.5" s:pid="Y"/></g><g s:type="lt" transform="translate(267,214.5)" s:width="25" s:height="25" id="cell_$lt$/Users/thomaskoetting/Verilog/opamp.v:13$5"><s:alias val="$lt"/><circle r="12.5" cx="12.5" cy="12.5" fill="#ffffff" class="cell_$lt$/Users/thomaskoetting/Verilog/opamp.v:13$5"/><line x1="6" x2="17" y1="12" y2="7" class="cell_$lt$/Users/thomaskoetting/Verilog/opamp.v:13$5"/><line x1="6" x2="17" y1="12" y2="17" class="cell_$lt$/Users/thomaskoetting/Verilog/opamp.v:13$5"/><g s:x="2" s:y="5" s:pid="A"/><g s:x="2" s:y="20" s:pid="B"/><g s:x="25" s:y="12.5" s:pid="Y"/></g><g s:type="lt" transform="translate(388,153.5)" s:width="25" s:height="25" id="cell_$lt$/Users/thomaskoetting/Verilog/opamp.v:13$7"><s:alias val="$lt"/><circle r="12.5" cx="12.5" cy="12.5" fill="#ffffff" class="cell_$lt$/Users/thomaskoetting/Verilog/opamp.v:13$7"/><line x1="6" x2="17" y1="12" y2="7" class="cell_$lt$/Users/thomaskoetting/Verilog/opamp.v:13$7"/><line x1="6" x2="17" y1="12" y2="17" class="cell_$lt$/Users/thomaskoetting/Verilog/opamp.v:13$7"/><g s:x="2" s:y="5" s:pid="A"/><g s:x="2" s:y="20" s:pid="B"/><g s:x="25" s:y="12.5" s:pid="Y"/></g><g s:type="lt" transform="translate(509,229.5)" s:width="25" s:height="25" id="cell_$lt$/Users/thomaskoetting/Verilog/opamp.v:13$9"><s:alias val="$lt"/><circle r="12.5" cx="12.5" cy="12.5" fill="#ffffff" class="cell_$lt$/Users/thomaskoetting/Verilog/opamp.v:13$9"/><line x1="6" x2="17" y1="12" y2="7" class="cell_$lt$/Users/thomaskoetting/Verilog/opamp.v:13$9"/><line x1="6" x2="17" y1="12" y2="17" class="cell_$lt$/Users/thomaskoetting/Verilog/opamp.v:13$9"/><g s:x="2" s:y="5" s:pid="A"/><g s:x="2" s:y="20" s:pid="B"/><g s:x="25" s:y="12.5" s:pid="Y"/></g><g s:type="mux" transform="translate(1052,377)" s:width="20" s:height="40" id="cell_$procmux$20"><s:alias val="$pmux"/><s:alias val="$mux"/><s:alias val="$_MUX_"/><path d="M0,0 L20,10 L20,30 L0,40 Z" fill="#ffffff" class="cell_$procmux$20"/><text x="5" y="32" class="nodelabel cell_$procmux$20" s:attribute="">1</text><text x="5" y="13" class="nodelabel cell_$procmux$20" s:attribute="">0</text><g s:x="0" s:y="10" s:pid="A"/><g s:x="0" s:y="30" s:pid="B"/><g s:x="10" s:y="35" s:pid="S"/><g s:x="20" s:y="20" s:pid="Y"/></g><g s:type="mux" transform="translate(936,299.5)" s:width="20" s:height="40" id="cell_$procmux$23"><s:alias val="$pmux"/><s:alias val="$mux"/><s:alias val="$_MUX_"/><path d="M0,0 L20,10 L20,30 L0,40 Z" fill="#ffffff" class="cell_$procmux$23"/><text x="5" y="32" class="nodelabel cell_$procmux$23" s:attribute="">1</text><text x="5" y="13" class="nodelabel cell_$procmux$23" s:attribute="">0</text><g s:x="0" s:y="10" s:pid="A"/><g s:x="0" s:y="30" s:pid="B"/><g s:x="10" s:y="35" s:pid="S"/><g s:x="20" s:y="20" s:pid="Y"/></g><g s:type="mux" transform="translate(815,302)" s:width="20" s:height="40" id="cell_$procmux$26"><s:alias val="$pmux"/><s:alias val="$mux"/><s:alias val="$_MUX_"/><path d="M0,0 L20,10 L20,30 L0,40 Z" fill="#ffffff" class="cell_$procmux$26"/><text x="5" y="32" class="nodelabel cell_$procmux$26" s:attribute="">1</text><text x="5" y="13" class="nodelabel cell_$procmux$26" s:attribute="">0</text><g s:x="0" s:y="10" s:pid="A"/><g s:x="0" s:y="30" s:pid="B"/><g s:x="10" s:y="35" s:pid="S"/><g s:x="20" s:y="20" s:pid="Y"/></g><g s:type="mux" transform="translate(694,227)" s:width="20" s:height="40" id="cell_$procmux$29"><s:alias val="$pmux"/><s:alias val="$mux"/><s:alias val="$_MUX_"/><path d="M0,0 L20,10 L20,30 L0,40 Z" fill="#ffffff" class="cell_$procmux$29"/><text x="5" y="32" class="nodelabel cell_$procmux$29" s:attribute="">1</text><text x="5" y="13" class="nodelabel cell_$procmux$29" s:attribute="">0</text><g s:x="0" s:y="10" s:pid="A"/><g s:x="0" s:y="30" s:pid="B"/><g s:x="10" s:y="35" s:pid="S"/><g s:x="20" s:y="20" s:pid="Y"/></g><g s:type="mux" transform="translate(573,151)" s:width="20" s:height="40" id="cell_$procmux$32"><s:alias val="$pmux"/><s:alias val="$mux"/><s:alias val="$_MUX_"/><path d="M0,0 L20,10 L20,30 L0,40 Z" fill="#ffffff" class="cell_$procmux$32"/><text x="5" y="32" class="nodelabel cell_$procmux$32" s:attribute="">1</text><text x="5" y="13" class="nodelabel cell_$procmux$32" s:attribute="">0</text><g s:x="0" s:y="10" s:pid="A"/><g s:x="0" s:y="30" s:pid="B"/><g s:x="10" s:y="35" s:pid="S"/><g s:x="20" s:y="20" s:pid="Y"/></g><g s:type="mux" transform="translate(452,76)" s:width="20" s:height="40" id="cell_$procmux$35"><s:alias val="$pmux"/><s:alias val="$mux"/><s:alias val="$_MUX_"/><path d="M0,0 L20,10 L20,30 L0,40 Z" fill="#ffffff" class="cell_$procmux$35"/><text x="5" y="32" class="nodelabel cell_$procmux$35" s:attribute="">1</text><text x="5" y="13" class="nodelabel cell_$procmux$35" s:attribute="">0</text><g s:x="0" s:y="10" s:pid="A"/><g s:x="0" s:y="30" s:pid="B"/><g s:x="10" s:y="35" s:pid="S"/><g s:x="20" s:y="20" s:pid="Y"/></g><g s:type="mux" transform="translate(331,30)" s:width="20" s:height="40" id="cell_$procmux$38"><s:alias val="$pmux"/><s:alias val="$mux"/><s:alias val="$_MUX_"/><path d="M0,0 L20,10 L20,30 L0,40 Z" fill="#ffffff" class="cell_$procmux$38"/><text x="5" y="32" class="nodelabel cell_$procmux$38" s:attribute="">1</text><text x="5" y="13" class="nodelabel cell_$procmux$38" s:attribute="">0</text><g s:x="0" s:y="10" s:pid="A"/><g s:x="0" s:y="30" s:pid="B"/><g s:x="10" s:y="35" s:pid="S"/><g s:x="20" s:y="20" s:pid="Y"/></g><g s:type="mux" transform="translate(210,12)" s:width="20" s:height="40" id="cell_$procmux$41"><s:alias val="$pmux"/><s:alias val="$mux"/><s:alias val="$_MUX_"/><path d="M0,0 L20,10 L20,30 L0,40 Z" fill="#ffffff" class="cell_$procmux$41"/><text x="5" y="32" class="nodelabel cell_$procmux$41" s:attribute="">1</text><text x="5" y="13" class="nodelabel cell_$procmux$41" s:attribute="">0</text><g s:x="0" s:y="10" s:pid="A"/><g s:x="0" s:y="30" s:pid="B"/><g s:x="10" s:y="35" s:pid="S"/><g s:x="20" s:y="20" s:pid="Y"/></g><g s:type="inputExt" transform="translate(78,404.5)" s:width="30" s:height="20" id="cell_Vin"><text x="15" y="-4" class="nodelabel cell_Vin" s:attribute="ref">Vin</text><s:alias val="$_inputExt_"/><path d="M0,0 L0,20 L15,20 L30,10 L15,0 Z" fill="#8bcaff" class="cell_Vin"/><g s:x="30" s:y="10" s:pid="Y"/></g><g s:type="inputExt" transform="translate(78,530.5)" s:width="30" s:height="20" id="cell_Gain"><text x="15" y="-4" class="nodelabel cell_Gain" s:attribute="ref">Gain</text><s:alias val="$_inputExt_"/><path d="M0,0 L0,20 L15,20 L30,10 L15,0 Z" fill="#8bcaff" class="cell_Gain"/><g s:x="30" s:y="10" s:pid="Y"/></g><g s:type="outputExt" transform="translate(1107,387)" s:width="30" s:height="20" id="cell_Vout"><text x="15" y="-4" class="nodelabel cell_Vout" s:attribute="ref">Vout</text><s:alias val="$_outputExt_"/><path d="M30,0 L30,20 L15,20 L0,10 L15,0 Z" fill="#169300" class="cell_Vout"/><g s:x="0" s:y="10" s:pid="A"/></g><g s:type="constant" transform="translate(78,24.5)" s:width="30" s:height="20" id="cell_0"><text x="15" y="-4" class="nodelabel cell_0" s:attribute="ref">0</text><s:alias val="$_constant_"/><rect width="30" height="20" fill="#745bff" class="cell_0"/><g s:x="31" s:y="10" s:pid="Y"/></g><g s:type="constant" transform="translate(507,294.5)" s:width="30" s:height="20" id="cell_00000000000000000000000000000100"><text x="15" y="-4" class="nodelabel cell_00000000000000000000000000000100" s:attribute="ref">0x4</text><s:alias val="$_constant_"/><rect width="30" height="20" fill="#745bff" class="cell_00000000000000000000000000000100"/><g s:x="31" s:y="10" s:pid="Y"/></g><g s:type="constant" transform="translate(628,369.5)" s:width="30" s:height="20" id="cell_00000000000000000000000000000101"><text x="15" y="-4" class="nodelabel cell_00000000000000000000000000000101" s:attribute="ref">0x5</text><s:alias val="$_constant_"/><rect width="30" height="20" fill="#745bff" class="cell_00000000000000000000000000000101"/><g s:x="31" s:y="10" s:pid="Y"/></g><g s:type="constant" transform="translate(749,435.5)" s:width="30" s:height="20" id="cell_00000000000000000000000000000110"><text x="15" y="-4" class="nodelabel cell_00000000000000000000000000000110" s:attribute="ref">0x6</text><s:alias val="$_constant_"/><rect width="30" height="20" fill="#745bff" class="cell_00000000000000000000000000000110"/><g s:x="31" s:y="10" s:pid="Y"/></g><g s:type="constant" transform="translate(870,510.5)" s:width="30" s:height="20" id="cell_00000000000000000000000000000111"><text x="15" y="-4" class="nodelabel cell_00000000000000000000000000000111" s:attribute="ref">0x7</text><s:alias val="$_constant_"/><rect width="30" height="20" fill="#745bff" class="cell_00000000000000000000000000000111"/><g s:x="31" s:y="10" s:pid="Y"/></g><g s:type="constant" transform="translate(12,73.5)" s:width="30" s:height="20" id="cell_00000000000000000000000000000000"><text x="15" y="-4" class="nodelabel cell_00000000000000000000000000000000" s:attribute="ref">0x0</text><s:alias val="$_constant_"/><rect width="30" height="20" fill="#745bff" class="cell_00000000000000000000000000000000"/><g s:x="31" s:y="10" s:pid="Y"/></g><g s:type="constant" transform="translate(144,209.5)" s:width="30" s:height="20" id="cell_00000000000000000000000000000001"><text x="15" y="-4" class="nodelabel cell_00000000000000000000000000000001" s:attribute="ref">0x1</text><s:alias val="$_constant_"/><rect width="30" height="20" fill="#745bff" class="cell_00000000000000000000000000000001"/><g s:x="31" s:y="10" s:pid="Y"/></g><g s:type="constant" transform="translate(265,143.5)" s:width="30" s:height="20" id="cell_00000000000000000000000000000010"><text x="15" y="-4" class="nodelabel cell_00000000000000000000000000000010" s:attribute="ref">0x2</text><s:alias val="$_constant_"/><rect width="30" height="20" fill="#745bff" class="cell_00000000000000000000000000000010"/><g s:x="31" s:y="10" s:pid="Y"/></g><g s:type="constant" transform="translate(386,219.5)" s:width="30" s:height="20" id="cell_00000000000000000000000000000011"><text x="15" y="-4" class="nodelabel cell_00000000000000000000000000000011" s:attribute="ref">0x3</text><s:alias val="$_constant_"/><rect width="30" height="20" fill="#745bff" class="cell_00000000000000000000000000000011"/><g s:x="31" s:y="10" s:pid="Y"/></g><line x1="472" x2="482" y1="96" y2="96" class="net_5 width_1" style="stroke-width: 1"/><line x1="482" x2="482" y1="96" y2="173.5" class="net_5 width_1" style="stroke-width: 1"/><circle cx="482" cy="96" r="2" style="fill:#000" class="net_5 width_1"/><line x1="482" x2="511" y1="173.5" y2="173.5" class="net_5 width_1" style="stroke-width: 1"/><line x1="472" x2="548" y1="96" y2="96" class="net_5 width_1" style="stroke-width: 1"/><line x1="548" x2="548" y1="96" y2="161" class="net_5 width_1" style="stroke-width: 1"/><line x1="548" x2="573" y1="161" y2="161" class="net_5 width_1" style="stroke-width: 1"/><line x1="108" x2="119" y1="414.5" y2="414.5" class="net_2 width_1" style="stroke-width: 1"/><line x1="119" x2="119" y1="414.5" y2="188.5" class="net_2 width_1" style="stroke-width: 1"/><circle cx="119" cy="414.5" r="2" style="fill:#000" class="net_2 width_1"/><circle cx="119" cy="188.5" r="2" style="fill:#000" class="net_2 width_1"/><line x1="119" x2="511" y1="188.5" y2="188.5" class="net_2 width_1" style="stroke-width: 1"/><line x1="108" x2="119" y1="414.5" y2="414.5" class="net_2 width_1" style="stroke-width: 1"/><line x1="119" x2="119" y1="414.5" y2="264.5" class="net_2 width_1" style="stroke-width: 1"/><circle cx="119" cy="264.5" r="2" style="fill:#000" class="net_2 width_1"/><line x1="119" x2="632" y1="264.5" y2="264.5" class="net_2 width_1" style="stroke-width: 1"/><line x1="108" x2="119" y1="414.5" y2="414.5" class="net_2 width_1" style="stroke-width: 1"/><line x1="119" x2="119" y1="414.5" y2="339.5" class="net_2 width_1" style="stroke-width: 1"/><circle cx="119" cy="339.5" r="2" style="fill:#000" class="net_2 width_1"/><line x1="119" x2="753" y1="339.5" y2="339.5" class="net_2 width_1" style="stroke-width: 1"/><line x1="108" x2="845" y1="414.5" y2="414.5" class="net_2 width_1" style="stroke-width: 1"/><line x1="845" x2="845" y1="414.5" y2="337" class="net_2 width_1" style="stroke-width: 1"/><circle cx="845" cy="414.5" r="2" style="fill:#000" class="net_2 width_1"/><line x1="845" x2="874" y1="337" y2="337" class="net_2 width_1" style="stroke-width: 1"/><line x1="108" x2="993" y1="414.5" y2="414.5" class="net_2 width_1" style="stroke-width: 1"/><line x1="108" x2="119" y1="414.5" y2="414.5" class="net_2 width_1" style="stroke-width: 1"/><line x1="119" x2="119" y1="414.5" y2="49.5" class="net_2 width_1" style="stroke-width: 1"/><line x1="119" x2="148" y1="49.5" y2="49.5" class="net_2 width_1" style="stroke-width: 1"/><line x1="108" x2="119" y1="414.5" y2="414.5" class="net_2 width_1" style="stroke-width: 1"/><line x1="119" x2="119" y1="414.5" y2="67.5" class="net_2 width_1" style="stroke-width: 1"/><circle cx="119" cy="67.5" r="2" style="fill:#000" class="net_2 width_1"/><line x1="119" x2="269" y1="67.5" y2="67.5" class="net_2 width_1" style="stroke-width: 1"/><line x1="108" x2="119" y1="414.5" y2="414.5" class="net_2 width_1" style="stroke-width: 1"/><line x1="119" x2="119" y1="414.5" y2="113.5" class="net_2 width_1" style="stroke-width: 1"/><circle cx="119" cy="113.5" r="2" style="fill:#000" class="net_2 width_1"/><line x1="119" x2="390" y1="113.5" y2="113.5" class="net_2 width_1" style="stroke-width: 1"/><line x1="593" x2="603" y1="171" y2="171" class="net_7 width_1" style="stroke-width: 1"/><line x1="603" x2="603" y1="171" y2="249.5" class="net_7 width_1" style="stroke-width: 1"/><circle cx="603" cy="171" r="2" style="fill:#000" class="net_7 width_1"/><line x1="603" x2="632" y1="249.5" y2="249.5" class="net_7 width_1" style="stroke-width: 1"/><line x1="593" x2="669" y1="171" y2="171" class="net_7 width_1" style="stroke-width: 1"/><line x1="669" x2="669" y1="171" y2="237" class="net_7 width_1" style="stroke-width: 1"/><line x1="669" x2="694" y1="237" y2="237" class="net_7 width_1" style="stroke-width: 1"/><line x1="714" x2="724" y1="247" y2="247" class="net_9 width_1" style="stroke-width: 1"/><line x1="724" x2="724" y1="247" y2="324.5" class="net_9 width_1" style="stroke-width: 1"/><circle cx="724" cy="247" r="2" style="fill:#000" class="net_9 width_1"/><line x1="724" x2="753" y1="324.5" y2="324.5" class="net_9 width_1" style="stroke-width: 1"/><line x1="714" x2="790" y1="247" y2="247" class="net_9 width_1" style="stroke-width: 1"/><line x1="790" x2="790" y1="247" y2="312" class="net_9 width_1" style="stroke-width: 1"/><line x1="790" x2="815" y1="312" y2="312" class="net_9 width_1" style="stroke-width: 1"/><line x1="835" x2="874" y1="322" y2="322" class="net_11 width_1" style="stroke-width: 1"/><line x1="835" x2="845" y1="322" y2="322" class="net_11 width_1" style="stroke-width: 1"/><line x1="845" x2="845" y1="322" y2="306" class="net_11 width_1" style="stroke-width: 1"/><line x1="845" x2="911" y1="306" y2="306" class="net_11 width_1" style="stroke-width: 1"/><line x1="911" x2="911" y1="306" y2="309.5" class="net_11 width_1" style="stroke-width: 1"/><circle cx="845" cy="322" r="2" style="fill:#000" class="net_11 width_1"/><line x1="911" x2="936" y1="309.5" y2="309.5" class="net_11 width_1" style="stroke-width: 1"/><line x1="956" x2="966" y1="319.5" y2="319.5" class="net_13 width_1" style="stroke-width: 1"/><line x1="966" x2="966" y1="319.5" y2="399.5" class="net_13 width_1" style="stroke-width: 1"/><circle cx="966" cy="319.5" r="2" style="fill:#000" class="net_13 width_1"/><line x1="966" x2="993" y1="399.5" y2="399.5" class="net_13 width_1" style="stroke-width: 1"/><line x1="956" x2="1027" y1="319.5" y2="319.5" class="net_13 width_1" style="stroke-width: 1"/><line x1="1027" x2="1027" y1="319.5" y2="387" class="net_13 width_1" style="stroke-width: 1"/><line x1="1027" x2="1052" y1="387" y2="387" class="net_13 width_1" style="stroke-width: 1"/><line x1="109" x2="148" y1="34.5" y2="34.5" class="net_28 width_1" style="stroke-width: 1"/><line x1="109" x2="119" y1="34.5" y2="34.5" class="net_28 width_1" style="stroke-width: 1"/><line x1="119" x2="119" y1="34.5" y2="18.5" class="net_28 width_1" style="stroke-width: 1"/><line x1="119" x2="185" y1="18.5" y2="18.5" class="net_28 width_1" style="stroke-width: 1"/><line x1="185" x2="185" y1="18.5" y2="22" class="net_28 width_1" style="stroke-width: 1"/><circle cx="119" cy="34.5" r="2" style="fill:#000" class="net_28 width_1"/><line x1="185" x2="210" y1="22" y2="22" class="net_28 width_1" style="stroke-width: 1"/><line x1="230" x2="240" y1="32" y2="32" class="net_16 width_1" style="stroke-width: 1"/><line x1="240" x2="240" y1="32" y2="52.5" class="net_16 width_1" style="stroke-width: 1"/><circle cx="240" cy="32" r="2" style="fill:#000" class="net_16 width_1"/><line x1="240" x2="269" y1="52.5" y2="52.5" class="net_16 width_1" style="stroke-width: 1"/><line x1="230" x2="306" y1="32" y2="32" class="net_16 width_1" style="stroke-width: 1"/><line x1="306" x2="306" y1="32" y2="40" class="net_16 width_1" style="stroke-width: 1"/><line x1="306" x2="331" y1="40" y2="40" class="net_16 width_1" style="stroke-width: 1"/><line x1="351" x2="361" y1="50" y2="50" class="net_18 width_1" style="stroke-width: 1"/><line x1="361" x2="361" y1="50" y2="98.5" class="net_18 width_1" style="stroke-width: 1"/><circle cx="361" cy="50" r="2" style="fill:#000" class="net_18 width_1"/><line x1="361" x2="390" y1="98.5" y2="98.5" class="net_18 width_1" style="stroke-width: 1"/><line x1="351" x2="427" y1="50" y2="50" class="net_18 width_1" style="stroke-width: 1"/><line x1="427" x2="427" y1="50" y2="86" class="net_18 width_1" style="stroke-width: 1"/><line x1="427" x2="452" y1="86" y2="86" class="net_18 width_1" style="stroke-width: 1"/><line x1="538" x2="603" y1="304.5" y2="304.5" class="net_29,30,31,32,33,34,35,36,37,38,39,40,41,42,43,44,45,46,47,48,49,50,51,52,53,54,55,56,57,58,59,60 width_32" style="stroke-width: 2"/><line x1="603" x2="603" y1="304.5" y2="309.5" class="net_29,30,31,32,33,34,35,36,37,38,39,40,41,42,43,44,45,46,47,48,49,50,51,52,53,54,55,56,57,58,59,60 width_32" style="stroke-width: 2"/><line x1="603" x2="632" y1="309.5" y2="309.5" class="net_29,30,31,32,33,34,35,36,37,38,39,40,41,42,43,44,45,46,47,48,49,50,51,52,53,54,55,56,57,58,59,60 width_32" style="stroke-width: 2"/><line x1="108" x2="129" y1="540.5" y2="540.5" class="net_3 width_1" style="stroke-width: 1"/><line x1="129" x2="129" y1="540.5" y2="324.5" class="net_3 width_1" style="stroke-width: 1"/><circle cx="129" cy="540.5" r="2" style="fill:#000" class="net_3 width_1"/><circle cx="129" cy="324.5" r="2" style="fill:#000" class="net_3 width_1"/><line x1="129" x2="632" y1="324.5" y2="324.5" class="net_3 width_1" style="stroke-width: 1"/><line x1="108" x2="129" y1="540.5" y2="540.5" class="net_3 width_1" style="stroke-width: 1"/><line x1="129" x2="129" y1="540.5" y2="399.5" class="net_3 width_1" style="stroke-width: 1"/><circle cx="129" cy="399.5" r="2" style="fill:#000" class="net_3 width_1"/><line x1="129" x2="753" y1="399.5" y2="399.5" class="net_3 width_1" style="stroke-width: 1"/><line x1="108" x2="845" y1="540.5" y2="540.5" class="net_3 width_1" style="stroke-width: 1"/><line x1="845" x2="845" y1="540.5" y2="460.5" class="net_3 width_1" style="stroke-width: 1"/><circle cx="845" cy="540.5" r="2" style="fill:#000" class="net_3 width_1"/><line x1="845" x2="874" y1="460.5" y2="460.5" class="net_3 width_1" style="stroke-width: 1"/><line x1="108" x2="993.3333333333334" y1="540.5" y2="540.5" class="net_3 width_1" style="stroke-width: 1"/><line x1="108" x2="129" y1="540.5" y2="540.5" class="net_3 width_1" style="stroke-width: 1"/><line x1="129" x2="129" y1="540.5" y2="98.5" class="net_3 width_1" style="stroke-width: 1"/><line x1="129" x2="148" y1="98.5" y2="98.5" class="net_3 width_1" style="stroke-width: 1"/><line x1="108" x2="129" y1="540.5" y2="540.5" class="net_3 width_1" style="stroke-width: 1"/><line x1="129" x2="129" y1="540.5" y2="249.5" class="net_3 width_1" style="stroke-width: 1"/><line x1="129" x2="240" y1="249.5" y2="249.5" class="net_3 width_1" style="stroke-width: 1"/><line x1="240" x2="240" y1="249.5" y2="234.5" class="net_3 width_1" style="stroke-width: 1"/><circle cx="129" cy="249.5" r="2" style="fill:#000" class="net_3 width_1"/><circle cx="240" cy="249.5" r="2" style="fill:#000" class="net_3 width_1"/><line x1="240" x2="269" y1="234.5" y2="234.5" class="net_3 width_1" style="stroke-width: 1"/><line x1="108" x2="129" y1="540.5" y2="540.5" class="net_3 width_1" style="stroke-width: 1"/><line x1="129" x2="129" y1="540.5" y2="173.5" class="net_3 width_1" style="stroke-width: 1"/><circle cx="129" cy="173.5" r="2" style="fill:#000" class="net_3 width_1"/><line x1="129" x2="390" y1="173.5" y2="173.5" class="net_3 width_1" style="stroke-width: 1"/><line x1="108" x2="129" y1="540.5" y2="540.5" class="net_3 width_1" style="stroke-width: 1"/><line x1="129" x2="129" y1="540.5" y2="249.5" class="net_3 width_1" style="stroke-width: 1"/><line x1="129" x2="511" y1="249.5" y2="249.5" class="net_3 width_1" style="stroke-width: 1"/><line x1="659" x2="724" y1="379.5" y2="379.5" class="net_61,62,63,64,65,66,67,68,69,70,71,72,73,74,75,76,77,78,79,80,81,82,83,84,85,86,87,88,89,90,91,92 width_32" style="stroke-width: 2"/><line x1="724" x2="724" y1="379.5" y2="384.5" class="net_61,62,63,64,65,66,67,68,69,70,71,72,73,74,75,76,77,78,79,80,81,82,83,84,85,86,87,88,89,90,91,92 width_32" style="stroke-width: 2"/><line x1="724" x2="753" y1="384.5" y2="384.5" class="net_61,62,63,64,65,66,67,68,69,70,71,72,73,74,75,76,77,78,79,80,81,82,83,84,85,86,87,88,89,90,91,92 width_32" style="stroke-width: 2"/><line x1="780" x2="874" y1="445.5" y2="445.5" class="net_93,94,95,96,97,98,99,100,101,102,103,104,105,106,107,108,109,110,111,112,113,114,115,116,117,118,119,120,121,122,123,124 width_32" style="stroke-width: 2"/><line x1="901" x2="966" y1="520.5" y2="520.5" class="net_125,126,127,128,129,130,131,132,133,134,135,136,137,138,139,140,141,142,143,144,145,146,147,148,149,150,151,152,153,154,155,156 width_32" style="stroke-width: 2"/><line x1="966" x2="966" y1="520.5" y2="525.5" class="net_125,126,127,128,129,130,131,132,133,134,135,136,137,138,139,140,141,142,143,144,145,146,147,148,149,150,151,152,153,154,155,156 width_32" style="stroke-width: 2"/><line x1="966" x2="993.3333333333334" y1="525.5" y2="525.5" class="net_125,126,127,128,129,130,131,132,133,134,135,136,137,138,139,140,141,142,143,144,145,146,147,148,149,150,151,152,153,154,155,156 width_32" style="stroke-width: 2"/><line x1="43" x2="148" y1="83.5" y2="83.5" class="net_157,158,159,160,161,162,163,164,165,166,167,168,169,170,171,172,173,174,175,176,177,178,179,180,181,182,183,184,185,186,187,188 width_32" style="stroke-width: 2"/><line x1="175" x2="269" y1="219.5" y2="219.5" class="net_189,190,191,192,193,194,195,196,197,198,199,200,201,202,203,204,205,206,207,208,209,210,211,212,213,214,215,216,217,218,219,220 width_32" style="stroke-width: 2"/><line x1="296" x2="361" y1="153.5" y2="153.5" class="net_221,222,223,224,225,226,227,228,229,230,231,232,233,234,235,236,237,238,239,240,241,242,243,244,245,246,247,248,249,250,251,252 width_32" style="stroke-width: 2"/><line x1="361" x2="361" y1="153.5" y2="158.5" class="net_221,222,223,224,225,226,227,228,229,230,231,232,233,234,235,236,237,238,239,240,241,242,243,244,245,246,247,248,249,250,251,252 width_32" style="stroke-width: 2"/><line x1="361" x2="390" y1="158.5" y2="158.5" class="net_221,222,223,224,225,226,227,228,229,230,231,232,233,234,235,236,237,238,239,240,241,242,243,244,245,246,247,248,249,250,251,252 width_32" style="stroke-width: 2"/><line x1="417" x2="482" y1="229.5" y2="229.5" class="net_253,254,255,256,257,258,259,260,261,262,263,264,265,266,267,268,269,270,271,272,273,274,275,276,277,278,279,280,281,282,283,284 width_32" style="stroke-width: 2"/><line x1="482" x2="482" y1="229.5" y2="234.5" class="net_253,254,255,256,257,258,259,260,261,262,263,264,265,266,267,268,269,270,271,272,273,274,275,276,277,278,279,280,281,282,283,284 width_32" style="stroke-width: 2"/><line x1="482" x2="511" y1="234.5" y2="234.5" class="net_253,254,255,256,257,258,259,260,261,262,263,264,265,266,267,268,269,270,271,272,273,274,275,276,277,278,279,280,281,282,283,284 width_32" style="stroke-width: 2"/><line x1="1017" x2="1052" y1="407" y2="407" class="net_14 width_1" style="stroke-width: 1"/><line x1="1016.3333333333334" x2="1062" y1="533" y2="533" class="net_23 width_1" style="stroke-width: 1"/><line x1="1062" x2="1062" y1="533" y2="412" class="net_23 width_1" style="stroke-width: 1"/><line x1="898" x2="936" y1="329.5" y2="329.5" class="net_12 width_1" style="stroke-width: 1"/><line x1="897" x2="946" y1="453" y2="453" class="net_22 width_1" style="stroke-width: 1"/><line x1="946" x2="946" y1="453" y2="334.5" class="net_22 width_1" style="stroke-width: 1"/><line x1="777" x2="815" y1="332" y2="332" class="net_10 width_1" style="stroke-width: 1"/><line x1="776" x2="825" y1="392" y2="392" class="net_21 width_1" style="stroke-width: 1"/><line x1="825" x2="825" y1="392" y2="337" class="net_21 width_1" style="stroke-width: 1"/><line x1="656" x2="694" y1="257" y2="257" class="net_8 width_1" style="stroke-width: 1"/><line x1="655" x2="704" y1="317" y2="317" class="net_20 width_1" style="stroke-width: 1"/><line x1="704" x2="704" y1="317" y2="262" class="net_20 width_1" style="stroke-width: 1"/><line x1="535" x2="573" y1="181" y2="181" class="net_6 width_1" style="stroke-width: 1"/><line x1="534" x2="583" y1="242" y2="242" class="net_27 width_1" style="stroke-width: 1"/><line x1="583" x2="583" y1="242" y2="186" class="net_27 width_1" style="stroke-width: 1"/><line x1="414" x2="452" y1="106" y2="106" class="net_19 width_1" style="stroke-width: 1"/><line x1="413" x2="462" y1="166" y2="166" class="net_26 width_1" style="stroke-width: 1"/><line x1="462" x2="462" y1="166" y2="111" class="net_26 width_1" style="stroke-width: 1"/><line x1="293" x2="331" y1="60" y2="60" class="net_17 width_1" style="stroke-width: 1"/><line x1="292" x2="341" y1="227" y2="227" class="net_25 width_1" style="stroke-width: 1"/><line x1="341" x2="341" y1="227" y2="65" class="net_25 width_1" style="stroke-width: 1"/><line x1="172" x2="210" y1="42" y2="42" class="net_15 width_1" style="stroke-width: 1"/><line x1="171" x2="220" y1="91" y2="91" class="net_24 width_1" style="stroke-width: 1"/><line x1="220" x2="220" y1="91" y2="47" class="net_24 width_1" style="stroke-width: 1"/><line x1="1072" x2="1107" y1="397" y2="397" class="net_4 width_1" style="stroke-width: 1"/><rect x="582" y="299.5" width="22" height="9" class="net_29,30,31,32,33,34,35,36,37,38,39,40,41,42,43,44,45,46,47,48,49,50,51,52,53,54,55,56,57,58,59,60 width_32 busLabel_32" style="fill: white; stroke: none"/><text x="581" y="307.5" class="net_29,30,31,32,33,34,35,36,37,38,39,40,41,42,43,44,45,46,47,48,49,50,51,52,53,54,55,56,57,58,59,60 width_32 busLabel_32">/32/</text><rect x="703" y="374.5" width="22" height="9" class="net_61,62,63,64,65,66,67,68,69,70,71,72,73,74,75,76,77,78,79,80,81,82,83,84,85,86,87,88,89,90,91,92 width_32 busLabel_32" style="fill: white; stroke: none"/><text x="702" y="382.5" class="net_61,62,63,64,65,66,67,68,69,70,71,72,73,74,75,76,77,78,79,80,81,82,83,84,85,86,87,88,89,90,91,92 width_32 busLabel_32">/32/</text><rect x="824" y="440.5" width="22" height="9" class="net_93,94,95,96,97,98,99,100,101,102,103,104,105,106,107,108,109,110,111,112,113,114,115,116,117,118,119,120,121,122,123,124 width_32 busLabel_32" style="fill: white; stroke: none"/><text x="823" y="448.5" class="net_93,94,95,96,97,98,99,100,101,102,103,104,105,106,107,108,109,110,111,112,113,114,115,116,117,118,119,120,121,122,123,124 width_32 busLabel_32">/32/</text><rect x="945" y="515.5" width="22" height="9" class="net_125,126,127,128,129,130,131,132,133,134,135,136,137,138,139,140,141,142,143,144,145,146,147,148,149,150,151,152,153,154,155,156 width_32 busLabel_32" style="fill: white; stroke: none"/><text x="944" y="523.5" class="net_125,126,127,128,129,130,131,132,133,134,135,136,137,138,139,140,141,142,143,144,145,146,147,148,149,150,151,152,153,154,155,156 width_32 busLabel_32">/32/</text><rect x="92.5" y="78.5" width="22" height="9" class="net_157,158,159,160,161,162,163,164,165,166,167,168,169,170,171,172,173,174,175,176,177,178,179,180,181,182,183,184,185,186,187,188 width_32 busLabel_32" style="fill: white; stroke: none"/><text x="91.5" y="86.5" class="net_157,158,159,160,161,162,163,164,165,166,167,168,169,170,171,172,173,174,175,176,177,178,179,180,181,182,183,184,185,186,187,188 width_32 busLabel_32">/32/</text><rect x="219" y="214.5" width="22" height="9" class="net_189,190,191,192,193,194,195,196,197,198,199,200,201,202,203,204,205,206,207,208,209,210,211,212,213,214,215,216,217,218,219,220 width_32 busLabel_32" style="fill: white; stroke: none"/><text x="218" y="222.5" class="net_189,190,191,192,193,194,195,196,197,198,199,200,201,202,203,204,205,206,207,208,209,210,211,212,213,214,215,216,217,218,219,220 width_32 busLabel_32">/32/</text><rect x="340" y="148.5" width="22" height="9" class="net_221,222,223,224,225,226,227,228,229,230,231,232,233,234,235,236,237,238,239,240,241,242,243,244,245,246,247,248,249,250,251,252 width_32 busLabel_32" style="fill: white; stroke: none"/><text x="339" y="156.5" class="net_221,222,223,224,225,226,227,228,229,230,231,232,233,234,235,236,237,238,239,240,241,242,243,244,245,246,247,248,249,250,251,252 width_32 busLabel_32">/32/</text><rect x="461" y="224.5" width="22" height="9" class="net_253,254,255,256,257,258,259,260,261,262,263,264,265,266,267,268,269,270,271,272,273,274,275,276,277,278,279,280,281,282,283,284 width_32 busLabel_32" style="fill: white; stroke: none"/><text x="460" y="232.5" class="net_253,254,255,256,257,258,259,260,261,262,263,264,265,266,267,268,269,270,271,272,273,274,275,276,277,278,279,280,281,282,283,284 width_32 busLabel_32">/32/</text></svg>